<svg id="Calque_2" data-name="Calque 2" xmlns="http://www.w3.org/2000/svg" viewBox="0 0 481.67 423.08"><defs><style>.cls-1{fill:#4f4f4f;}.cls-2{fill:#fff;}.cls-3{fill:#969696;}</style></defs><title>mon-logo-bg-gris</title><rect class="cls-1" width="481.67" height="423.08"/><polygon class="cls-2" points="153.6 233.52 153.6 295.92 215.04 295.92 153.6 233.52"/><polygon class="cls-2" points="254.88 131.76 153.6 233.52 153.6 295.92 317.28 131.76 254.88 131.76"/><polygon class="cls-2" points="317.28 295.92 153.6 131.76 153.6 195.12 254.88 295.92 317.28 295.92"/><polygon class="cls-2" points="153.6 195.12 153.6 131.76 215.04 131.76 153.6 195.12"/><polygon class="cls-3" points="157.45 198.95 195.3 173.58 184.32 162.57 153.6 195.12 157.45 198.95"/><polygon class="cls-3" points="161.76 295.92 192.18 272.71 184.32 265.11 153.6 295.92 161.76 295.92"/><polygon class="cls-3" points="215.04 256.27 250.66 229.1 235.44 213.84 204.05 245.33 215.04 256.27"/></svg>