<svg
  id="Calque_1"
  data-name="Calque 1"
  xmlns="http://www.w3.org/2000/svg"
  viewBox="0 0 163.8 163.8"
>
  <defs>
    <style>
      .cls-1 {
        fill: #fff;
      }
      .cls-2 {
        fill: #8c8c8c;
      }
    </style>
  </defs>
  <title>mon-logo</title>
  <polygon class="cls-1" points="0 0 0 61.38 102.24 163.8 163.8 163.8 0 0" />
  <polygon class="cls-1" points="0 101.34 0 163.8 61.56 163.8 0 101.34" />
  <polygon class="cls-1" points="0 61.38 61.56 0 0 0 0 61.38" />
  <polygon class="cls-1" points="0 101.34 102 0 163.8 0 0 163.8 0 101.34" />
  <polygon
    class="cls-2"
    points="0 163.8 31 132.8 38.96 140.87 8.73 163.8 0 163.8"
  />
  <polygon
    class="cls-2"
    points="61.56 123.05 96.9 96.9 81.9 81.9 51.16 112.64 61.56 123.05"
  />
  <polygon
    class="cls-2"
    points="3.33 64.71 39.9 39.9 30.69 30.69 0 61.38 3.33 64.71"
  />
</svg>
